<?xml version="1.0" standalone="no"?>
<!DOCTYPE svg PUBLIC "-//W3C//DTD SVG 20010904//EN"
 "http://www.w3.org/TR/2001/REC-SVG-20010904/DTD/svg10.dtd">
<svg version="1.0" xmlns="http://www.w3.org/2000/svg"
 width="500.000000pt" height="500.000000pt" viewBox="0 0 500.000000 500.000000"
 preserveAspectRatio="xMidYMid meet">
<metadata>
Created by potrace 1.14, written by Peter Selinger 2001-2017
</metadata>
<g transform="translate(0.000000,500.000000) scale(0.100000,-0.100000)"
fill="#000000" stroke="none">
<path d="M1075 3358 c-5 -44 -265 -2944 -265 -2966 0 -14 141 -15 833 -5 l467
6 1 236 0 236 82 -232 82 -233 201 0 202 0 26 73 c14 39 47 133 74 208 26 75
51 137 56 139 5 1 92 -94 194 -211 l185 -214 146 -6 c80 -4 291 -7 469 -8
l323 -1 -6 33 c-6 41 -42 441 -51 567 -3 52 -12 158 -20 235 -32 330 -184
2023 -184 2053 0 24 10 44 40 76 l40 43 -68 6 c-93 9 -745 8 -758 -1 -5 -4
-210 -245 -454 -537 -244 -291 -447 -534 -451 -539 -5 -5 -11 -7 -14 -4 -3 3
-30 69 -60 147 l-55 142 0 393 0 393 -227 6 c-124 4 -356 7 -514 7 l-288 0 -6
-42z m2246 -1190 c5 -16 73 -908 69 -907 -9 1 -285 320 -288 332 -2 10 181
548 194 569 5 7 23 11 25 6z"/>
</g>
</svg>
